<svg width="33" height="33" viewBox="0 0 33 33" fill="none" xmlns="http://www.w3.org/2000/svg">
<path d="M27.4313 28.875C24.475 28.875 21.5935 28.2159 18.7866 26.8978C15.9798 25.5796 13.4933 23.8379 11.3273 21.6728C9.16117 19.5076 7.4195 17.0211 6.10225 14.2134C4.785 11.4056 4.12592 8.52408 4.125 5.56875C4.125 5.15625 4.2625 4.8125 4.5375 4.5375C4.8125 4.2625 5.15625 4.125 5.56875 4.125H11.1375C11.4583 4.125 11.7448 4.22812 11.9969 4.43437C12.249 4.64062 12.3979 4.90417 12.4438 5.225L13.3375 10.0375C13.3833 10.3583 13.3774 10.6508 13.3196 10.9148C13.2619 11.1788 13.1303 11.4134 12.925 11.6187L9.625 14.9875C10.5875 16.6375 11.7906 18.1844 13.2344 19.6281C14.6781 21.0719 16.2708 22.3208 18.0125 23.375L21.2437 20.1437C21.45 19.9375 21.7195 19.783 22.0522 19.6804C22.385 19.5777 22.7113 19.5488 23.0312 19.5938L27.775 20.5562C28.0958 20.625 28.3594 20.7799 28.5656 21.021C28.7719 21.2621 28.875 21.5426 28.875 21.8625V27.4313C28.875 27.8438 28.7375 28.1875 28.4625 28.4625C28.1875 28.7375 27.8438 28.875 27.4313 28.875Z" fill="#F8F8F8"/>
</svg>
